<?xml version="1.0" encoding="UTF-8" standalone="no"?>
<svg width="140px" height="140px" viewBox="0 0 140 140" version="1.1" xmlns="http://www.w3.org/2000/svg" xmlns:xlink="http://www.w3.org/1999/xlink" xmlns:sketch="http://www.bohemiancoding.com/sketch/ns">
    <!-- Generator: Sketch 3.2.2 (9983) - http://www.bohemiancoding.com/sketch -->
    <title>BFD-001</title>
    <desc>Created with Sketch.</desc>
    <defs></defs>
    <g id="Page-1" stroke="none" stroke-width="1" fill="none" fill-rule="evenodd" sketch:type="MSPage">
        <g id="BFD-001" sketch:type="MSArtboardGroup">
            <rect id="Rectangle-34" fill="#F9D04B" sketch:type="MSShapeGroup" x="23" y="64" width="84" height="51"></rect>
            <rect id="Rectangle-36" fill="#78CC5A" sketch:type="MSShapeGroup" x="29" y="30" width="52" height="72"></rect>
            <rect id="Rectangle-36" fill="#3476FF" sketch:type="MSShapeGroup" x="49" y="36" width="52" height="59"></rect>
            <rect id="Rectangle-36" fill="#FFFFFF" sketch:type="MSShapeGroup" x="39" y="42" width="52" height="67"></rect>
            <path d="M32.927788,78.8845215 C33.5199543,76.1868748 36.2467971,74 39.0030251,74 L112.996975,74 C115.760069,74 117.519303,76.189843 116.927788,78.8845215 L109,115 L25,115 L32.927788,78.8845215 Z" id="Rectangle-34" fill="#EE4D4E" sketch:type="MSShapeGroup"></path>
            <path d="M79,49 L69,59.0710678 L79,69 L82,66 L75,59.0710678 L82,52 L79,49 Z" id="Path-36" fill="#1E2834" sketch:type="MSShapeGroup" transform="translate(75.500000, 59.000000) scale(-1, 1) translate(-75.500000, -59.000000) "></path>
            <path d="M60,49 L50,59.0710678 L60,69 L63,66 L56,59.0710678 L63,52 L60,49 Z" id="Path-36" fill="#1E2834" sketch:type="MSShapeGroup"></path>
        </g>
    </g>
</svg>