<?xml version="1.0" encoding="UTF-8" standalone="no"?>
<svg width="140px" height="140px" viewBox="0 0 140 140" version="1.1" xmlns="http://www.w3.org/2000/svg" xmlns:xlink="http://www.w3.org/1999/xlink" xmlns:sketch="http://www.bohemiancoding.com/sketch/ns">
    <!-- Generator: Sketch 3.2.2 (9983) - http://www.bohemiancoding.com/sketch -->
    <title>AND-001</title>
    <desc>Created with Sketch.</desc>
    <defs></defs>
    <g id="Page-1" stroke="none" stroke-width="1" fill="none" fill-rule="evenodd" sketch:type="MSPage">
        <g id="AND-001" sketch:type="MSArtboardGroup">
            <path d="M83,24.9999999 C83.9599083,23.4001528 86,19.9999999 87.5,17.5 C87.7974486,17.0042523 88.4780273,16.0693969 89.293457,16.5240479 C90.1088867,16.9786988 89.7934187,18.0109691 89.5,18.5000001 C88,20.9999998 86.5139294,23.4767843 85,25.9999999 C99.4503796,32.8092006 100,49 100,49 L41,49 C41,49 41.5,32.9999996 56,25.9999996 C53,21.0000001 53,21.0000001 51.5,18.5000001 C50.9091621,17.5152703 51.1268311,16.9710693 51.6835938,16.5914307 C52.2403564,16.211792 52.9091145,16.5151908 53.5,17.5 C55,19.9999999 55,20.0000001 58,24.9999998 C61.4765521,23.689515 65.4321931,23 70.5,23 C75.599722,23 79.5106852,23.674727 83,24.9999999 Z" id="Path-98" fill="#78CC5A" sketch:type="MSShapeGroup"></path>
            <path d="M41,52 L100,52 C100,52 100,91 100,95 C100,98 98.5337463,99.4662537 98,100 C97,101 96,102 93,102 C91.3798014,102 110,102 88,102 C88,103.261828 88,111 88,117 C88,120 86.5,123.5 81.5,123.5 C76.5,123.5 75,120 75,117 C75,114 75,103.038586 75,102 L66,102 C66,102.856102 66,114 66,117 C66,120 64.5,123.5 59.5,123.5 C54.5,123.5 53,120 53,117 C53,114 53,102.883948 53,102 L48,102 C45,102 45,102 44,101 C43,100 41,98 41,95 C41,92 41,52 41,52 Z" id="Path-97" fill="#78CC5A" sketch:type="MSShapeGroup"></path>
            <path d="M103.089645,86.5819841 C103.604841,89.6568374 106.278783,92 109.5,92 C112.682415,92 115.33066,89.7129485 115.8908,86.6927812 C115.962513,86.306117 116,58.9074363 116,58.5 C116,54.9101491 113.089851,52 109.5,52 C105.910149,52 103,54.9101491 103,58.5 C103,58.8686337 103.030687,86.2301002 103.089645,86.5819841 Z" id="Oval-18" fill="#78CC5A" sketch:type="MSShapeGroup"></path>
            <path d="M25.0543225,86.344214 C25.4681739,89.5352238 28.1962473,92 31.5,92 C34.8305152,92 37.5759866,89.4951295 37.9552783,86.2665243 C37.9848125,86.0151241 38,58.7593357 38,58.5 C38,54.9101491 35.0898509,52 31.5,52 C27.9101491,52 25,54.9101491 25,58.5 C25,58.7860981 25.0184839,86.0678791 25.0543225,86.344214 Z" id="Oval-18" fill="#78CC5A" sketch:type="MSShapeGroup"></path>
            <circle id="Oval-20" fill="#FFFFFF" sketch:type="MSShapeGroup" cx="84" cy="36.5" r="2.5"></circle>
            <circle id="Oval-20" fill="#FFFFFF" sketch:type="MSShapeGroup" cx="57" cy="36.5" r="2.5"></circle>
        </g>
    </g>
</svg>