<?xml version="1.0" encoding="UTF-8" standalone="no"?>
<svg width="140px" height="140px" viewBox="0 0 140 140" version="1.1" xmlns="http://www.w3.org/2000/svg" xmlns:xlink="http://www.w3.org/1999/xlink" xmlns:sketch="http://www.bohemiancoding.com/sketch/ns">
    <!-- Generator: Sketch 3.2.2 (9983) - http://www.bohemiancoding.com/sketch -->
    <title>PIP-001</title>
    <desc>Created with Sketch.</desc>
    <defs></defs>
    <g id="Page-1" stroke="none" stroke-width="1" fill="none" fill-rule="evenodd" sketch:type="MSPage">
        <g id="PIP-001" sketch:type="MSArtboardGroup">
            <path d="M68.0000003,48.9999999 L39.918129,49 C39.918129,49 26,48.2588234 26,68 C26,87.7411766 37.4327489,90 39.918129,90 L47,90 C47,90 47,90.0000306 47,85.5 C47,77 47,74 50,71 C53,68 60.0116959,68 62,68 L77,68 C79,68 84,68 87,65 C90,62 90,56 90,46 L90,35.5 C90,33.0294118 87.6374269,26 68.748538,26 C49.8596491,26 47.374269,31.4352941 47.374269,34.8941176 C47.374269,38.3529412 47.3742695,46 47.3742695,46 L68.000001,45.9999999" id="Path-28" fill="#3476FF" sketch:type="MSShapeGroup"></path>
            <path d="M92.0000003,71.9999999 L63.918129,72 C63.918129,72 50,71.2588234 50,91 C50,110.741177 61.4327489,113 63.918129,113 L71,113 C71,113 71,113.000031 71,108.5 C71,100 71,97 74,94 C77,91 84.0116959,91 86,91 L101,91 C103,91 108,91 111,88 C114,85 114,79 114,69 L114,58.5 C114,56.0294118 111.637427,49 92.748538,49 C73.8596491,49 71.374269,54.4352941 71.374269,57.8941176 C71.374269,61.3529412 71.3742695,69 71.3742695,69 L92.000001,68.9999999" id="Path-29" fill="#F9D04B" sketch:type="MSShapeGroup" transform="translate(82.000000, 81.000000) rotate(-180.000000) translate(-82.000000, -81.000000) "></path>
            <path d="M83.5,104 C85.4329966,104 87,102.432997 87,100.5 C87,98.5670034 85.4329966,97 83.5,97 C81.5670034,97 80,98.5670034 80,100.5 C80,102.432997 81.5670034,104 83.5,104 Z" id="Oval-1" fill="#FFFFFF" sketch:type="MSShapeGroup"></path>
            <path d="M56.5,42 C58.4329966,42 60,40.4329966 60,38.5 C60,36.5670034 58.4329966,35 56.5,35 C54.5670034,35 53,36.5670034 53,38.5 C53,40.4329966 54.5670034,42 56.5,42 Z" id="Oval-1" fill="#FFFFFF" sketch:type="MSShapeGroup"></path>
        </g>
    </g>
</svg>