<?xml version="1.0" encoding="UTF-8" standalone="no"?>
<svg width="140px" height="140px" viewBox="0 0 140 140" version="1.1" xmlns="http://www.w3.org/2000/svg" xmlns:xlink="http://www.w3.org/1999/xlink" xmlns:sketch="http://www.bohemiancoding.com/sketch/ns">
    <!-- Generator: Sketch 3.2.2 (9983) - http://www.bohemiancoding.com/sketch -->
    <title>UXD-001</title>
    <desc>Created with Sketch.</desc>
    <defs>
        <circle id="path-1" cx="80" cy="40" r="3"></circle>
        <circle id="path-2" cx="66" cy="40" r="3"></circle>
    </defs>
    <g id="Page-1" stroke="none" stroke-width="1" fill="none" fill-rule="evenodd" sketch:type="MSPage">
        <g id="UXD-001" sketch:type="MSArtboardGroup">
            <path d="M55.6938776,98.2369338 L55.6938776,78.9011946 C55.6938776,74.8305127 52.6530612,72.7951717 48.5714286,72.7951717 C44.4897959,72.7951717 36.3265306,72.7951717 33.2653061,72.7951717 C30.2040816,72.7951717 28.1632653,70.7598308 28.1632653,67.7068193 L28.1632653,49.3887506" id="Path-34" stroke="#F9D04B" stroke-width="5" sketch:type="MSShapeGroup"></path>
            <path d="M44,68.5 C44,68.5 90.0202,68.5 93.0101,68.5 C96,68.5 98,69 99.5,71.5 C101,74 101,75.5 101,79 L101,106.031236 L52.99999,106.031236 C52.99999,106.031236 53,88 53,87 C53,86 52,84.5 50.5,83 C49,81.5 44,81 44,81 L44,68.5 Z" id="Path-95" fill="#78CC5A" sketch:type="MSShapeGroup"></path>
            <path d="M73,67 C85.7025492,67 96,56.7025492 96,44 C96,31.2974508 85.7025492,21 73,21 C60.2974508,21 50,31.2974508 50,44 C50,56.7025492 60.2974508,67 73,67 Z" id="Oval-12" fill="#F9D04B" sketch:type="MSShapeGroup"></path>
            <path d="M81.1429875,77 C80.5881128,77 80.0352679,77.4293761 79.9072443,77.962913 L71.5,113 L109.797872,113 L118.205117,77.962913 C118.332724,77.4311109 117.979387,77 117.431481,77 L81.1429875,77 Z" id="Path-35" stroke="#1E2835" stroke-width="5" fill="#1E2835" sketch:type="MSShapeGroup"></path>
            <path d="M52.5,113 L75,113" id="Path-36" stroke="#1E2835" stroke-width="5" fill="#1E2835" sketch:type="MSShapeGroup"></path>
            <g id="Oval-13">
                <use fill="#1E2835" fill-rule="evenodd" sketch:type="MSShapeGroup" xlink:href="#path-1"></use>
                <use fill="none" xlink:href="#path-1"></use>
            </g>
            <g id="Oval-14">
                <use fill="#1E2835" fill-rule="evenodd" sketch:type="MSShapeGroup" xlink:href="#path-2"></use>
                <use fill="none" xlink:href="#path-2"></use>
            </g>
            <path d="M28,52 C31.0375661,52 33.5,49.5375661 33.5,46.5 C33.5,45.7527745 33.5,45.5 31.5,44 C29.5,42.5 30.2903406,41 28,41 C24.9624339,41 22.5,43.4624339 22.5,46.5 C22.5,49.5375661 24.9624339,52 28,52 Z" id="Oval-17" fill="#F9D04B" sketch:type="MSShapeGroup"></path>
            <path d="M29,49.5 C29,49.5 32,48 33.5,46.5 C35,45 36,42.5 36,42.5" id="Path-95" stroke="#F9D04B" stroke-width="5" stroke-linecap="round" sketch:type="MSShapeGroup"></path>
            <path d="M30.5000003,42.9999996 C29.5000003,41.4999996 29.0000003,40.0000001 28.5000003,38.5000001 C28.0000003,37.0000001 28.0000003,35 27.0000003,34.0000001 C26.0000003,33.0000001 24.0000001,33 22.5000001,33.5 C21.0000001,34 19.5,36 19.5,38.5000002 C19.5,41.0000004 20.8208141,45.7885698 23,49.0000002 C25.3750005,52.4999993 29.5,50.000001 30.5000003,49.0000005 C31.5000007,48.0000001 31.5000003,44.4999996 30.5000003,42.9999996 Z" id="Path-96" fill="#F9D04B" sketch:type="MSShapeGroup"></path>
            <path d="M64.5,51 C64.5,51 68,54 73,54 C78,54 81.5,51 81.5,51" id="Path-35" stroke="#1E2835" stroke-width="4" sketch:type="MSShapeGroup"></path>
        </g>
    </g>
</svg>